<svg width="173" height="14" viewBox="0 0 173 14" fill="none" xmlns="http://www.w3.org/2000/svg">
<g filter="url(#filter0_d)">
<path d="M4.67188 6.92969C3.38542 6.5599 2.44792 6.10677 1.85938 5.57031C1.27604 5.02865 0.984375 4.36198 0.984375 3.57031C0.984375 2.67448 1.34115 1.9349 2.05469 1.35156C2.77344 0.763021 3.70573 0.46875 4.85156 0.46875C5.63281 0.46875 6.32812 0.619792 6.9375 0.921875C7.55208 1.22396 8.02604 1.64062 8.35938 2.17188C8.69792 2.70312 8.86719 3.28385 8.86719 3.91406H7.35938C7.35938 3.22656 7.14062 2.6875 6.70312 2.29688C6.26562 1.90104 5.64844 1.70312 4.85156 1.70312C4.11198 1.70312 3.53385 1.86719 3.11719 2.19531C2.70573 2.51823 2.5 2.96875 2.5 3.54688C2.5 4.01042 2.69531 4.40365 3.08594 4.72656C3.48177 5.04427 4.15104 5.33594 5.09375 5.60156C6.04167 5.86719 6.78125 6.16146 7.3125 6.48438C7.84896 6.80208 8.24479 7.17448 8.5 7.60156C8.76042 8.02865 8.89062 8.53125 8.89062 9.10938C8.89062 10.0312 8.53125 10.7708 7.8125 11.3281C7.09375 11.8802 6.13281 12.1562 4.92969 12.1562C4.14844 12.1562 3.41927 12.0078 2.74219 11.7109C2.0651 11.4089 1.54167 10.9974 1.17188 10.4766C0.807292 9.95573 0.625 9.36458 0.625 8.70312H2.13281C2.13281 9.39062 2.38542 9.9349 2.89062 10.3359C3.40104 10.7318 4.08073 10.9297 4.92969 10.9297C5.72135 10.9297 6.32812 10.7682 6.75 10.4453C7.17188 10.1224 7.38281 9.68229 7.38281 9.125C7.38281 8.56771 7.1875 8.13802 6.79688 7.83594C6.40625 7.52865 5.69792 7.22656 4.67188 6.92969ZM15.8125 12C15.7292 11.8333 15.6615 11.5365 15.6094 11.1094C14.9375 11.8073 14.1354 12.1562 13.2031 12.1562C12.3698 12.1562 11.6849 11.9219 11.1484 11.4531C10.6172 10.9792 10.3516 10.3802 10.3516 9.65625C10.3516 8.77604 10.6849 8.09375 11.3516 7.60938C12.0234 7.11979 12.9661 6.875 14.1797 6.875H15.5859V6.21094C15.5859 5.70573 15.4349 5.30469 15.1328 5.00781C14.8307 4.70573 14.3854 4.55469 13.7969 4.55469C13.2812 4.55469 12.849 4.6849 12.5 4.94531C12.151 5.20573 11.9766 5.52083 11.9766 5.89062H10.5234C10.5234 5.46875 10.6719 5.0625 10.9688 4.67188C11.2708 4.27604 11.6771 3.96354 12.1875 3.73438C12.7031 3.50521 13.2682 3.39062 13.8828 3.39062C14.8568 3.39062 15.6198 3.63542 16.1719 4.125C16.724 4.60938 17.0104 5.27865 17.0312 6.13281V10.0234C17.0312 10.7995 17.1302 11.4167 17.3281 11.875V12H15.8125ZM13.4141 10.8984C13.8672 10.8984 14.2969 10.7812 14.7031 10.5469C15.1094 10.3125 15.4036 10.0078 15.5859 9.63281V7.89844H14.4531C12.6823 7.89844 11.7969 8.41667 11.7969 9.45312C11.7969 9.90625 11.9479 10.2604 12.25 10.5156C12.5521 10.7708 12.9401 10.8984 13.4141 10.8984ZM21.9609 10.0391L24.0547 3.54688H25.5312L22.5 12H21.3984L18.3359 3.54688H19.8125L21.9609 10.0391ZM30.3203 12.1562C29.1745 12.1562 28.2422 11.7812 27.5234 11.0312C26.8047 10.276 26.4453 9.26823 26.4453 8.00781V7.74219C26.4453 6.90365 26.6042 6.15625 26.9219 5.5C27.2448 4.83854 27.6927 4.32292 28.2656 3.95312C28.8438 3.57812 29.4688 3.39062 30.1406 3.39062C31.2396 3.39062 32.0938 3.7526 32.7031 4.47656C33.3125 5.20052 33.6172 6.23698 33.6172 7.58594V8.1875H27.8906C27.9115 9.02083 28.1536 9.69531 28.6172 10.2109C29.0859 10.7214 29.6797 10.9766 30.3984 10.9766C30.9089 10.9766 31.3411 10.8724 31.6953 10.6641C32.0495 10.4557 32.3594 10.1797 32.625 9.83594L33.5078 10.5234C32.7995 11.612 31.737 12.1562 30.3203 12.1562ZM30.1406 4.57812C29.5573 4.57812 29.0677 4.79167 28.6719 5.21875C28.276 5.64062 28.0312 6.23438 27.9375 7H32.1719V6.89062C32.1302 6.15625 31.9323 5.58854 31.5781 5.1875C31.224 4.78125 30.7448 4.57812 30.1406 4.57812ZM46.75 10.0078L48.375 3.54688H49.8203L47.3594 12H46.1875L44.1328 5.59375L42.1328 12H40.9609L38.5078 3.54688H39.9453L41.6094 9.875L43.5781 3.54688H44.7422L46.75 10.0078ZM52.8672 12H51.4219V3.54688H52.8672V12ZM51.3047 1.30469C51.3047 1.07031 51.375 0.872396 51.5156 0.710938C51.6615 0.549479 51.875 0.46875 52.1562 0.46875C52.4375 0.46875 52.651 0.549479 52.7969 0.710938C52.9427 0.872396 53.0156 1.07031 53.0156 1.30469C53.0156 1.53906 52.9427 1.73438 52.7969 1.89062C52.651 2.04688 52.4375 2.125 52.1562 2.125C51.875 2.125 51.6615 2.04688 51.5156 1.89062C51.375 1.73438 51.3047 1.53906 51.3047 1.30469ZM57.1484 1.5V3.54688H58.7266V4.66406H57.1484V9.90625C57.1484 10.2448 57.2188 10.5 57.3594 10.6719C57.5 10.8385 57.7396 10.9219 58.0781 10.9219C58.2448 10.9219 58.474 10.8906 58.7656 10.8281V12C58.3854 12.1042 58.0156 12.1562 57.6562 12.1562C57.0104 12.1562 56.5234 11.9609 56.1953 11.5703C55.8672 11.1797 55.7031 10.625 55.7031 9.90625V4.66406H54.1641V3.54688H55.7031V1.5H57.1484ZM61.8672 4.57031C62.5078 3.78385 63.3411 3.39062 64.3672 3.39062C66.1536 3.39062 67.0547 4.39844 67.0703 6.41406V12H65.625V6.40625C65.6198 5.79688 65.4792 5.34635 65.2031 5.05469C64.9323 4.76302 64.5078 4.61719 63.9297 4.61719C63.4609 4.61719 63.0495 4.74219 62.6953 4.99219C62.3411 5.24219 62.0651 5.57031 61.8672 5.97656V12H60.4219V0H61.8672V4.57031ZM82.9922 9.01562C82.9922 8.57292 82.8359 8.23438 82.5234 8C82.2109 7.76042 81.6484 7.51042 80.8359 7.25C80.0234 6.98438 79.3802 6.72396 78.9062 6.46875C77.6146 5.77083 76.9688 4.83073 76.9688 3.64844C76.9688 3.03385 77.1406 2.48698 77.4844 2.00781C77.8333 1.52344 78.3307 1.14583 78.9766 0.875C79.6276 0.604167 80.3568 0.46875 81.1641 0.46875C81.9766 0.46875 82.7005 0.617188 83.3359 0.914062C83.9714 1.20573 84.4635 1.61979 84.8125 2.15625C85.1667 2.69271 85.3438 3.30208 85.3438 3.98438H83C83 3.46354 82.8359 3.0599 82.5078 2.77344C82.1797 2.48177 81.7188 2.33594 81.125 2.33594C80.5521 2.33594 80.1068 2.45833 79.7891 2.70312C79.4714 2.94271 79.3125 3.26042 79.3125 3.65625C79.3125 4.02604 79.4974 4.33594 79.8672 4.58594C80.2422 4.83594 80.7917 5.07031 81.5156 5.28906C82.849 5.6901 83.8203 6.1875 84.4297 6.78125C85.0391 7.375 85.3438 8.11458 85.3438 9C85.3438 9.98438 84.9714 10.7578 84.2266 11.3203C83.4818 11.8776 82.4792 12.1562 81.2188 12.1562C80.3438 12.1562 79.5469 11.9974 78.8281 11.6797C78.1094 11.3568 77.5599 10.9167 77.1797 10.3594C76.8047 9.80208 76.6172 9.15625 76.6172 8.42188H78.9688C78.9688 9.67708 79.7188 10.3047 81.2188 10.3047C81.776 10.3047 82.2109 10.1927 82.5234 9.96875C82.8359 9.73958 82.9922 9.42188 82.9922 9.01562ZM88.9062 3.54688L88.9766 4.49219C89.5755 3.75781 90.3854 3.39062 91.4062 3.39062C92.4948 3.39062 93.2422 3.82031 93.6484 4.67969C94.2422 3.82031 95.0885 3.39062 96.1875 3.39062C97.1042 3.39062 97.7865 3.65885 98.2344 4.19531C98.6823 4.72656 98.9062 5.52865 98.9062 6.60156V12H96.6406V6.60938C96.6406 6.13021 96.5469 5.78125 96.3594 5.5625C96.1719 5.33854 95.8411 5.22656 95.3672 5.22656C94.6901 5.22656 94.2214 5.54948 93.9609 6.19531L93.9688 12H91.7109V6.61719C91.7109 6.1276 91.6146 5.77344 91.4219 5.55469C91.2292 5.33594 90.901 5.22656 90.4375 5.22656C89.7969 5.22656 89.3333 5.49219 89.0469 6.02344V12H86.7891V3.54688H88.9062ZM105.547 12C105.443 11.7969 105.367 11.5443 105.32 11.2422C104.773 11.8516 104.062 12.1562 103.188 12.1562C102.359 12.1562 101.672 11.9167 101.125 11.4375C100.583 10.9583 100.312 10.3542 100.312 9.625C100.312 8.72917 100.643 8.04167 101.305 7.5625C101.971 7.08333 102.932 6.84115 104.188 6.83594H105.227V6.35156C105.227 5.96094 105.125 5.64844 104.922 5.41406C104.724 5.17969 104.409 5.0625 103.977 5.0625C103.596 5.0625 103.297 5.15365 103.078 5.33594C102.865 5.51823 102.758 5.76823 102.758 6.08594H100.5C100.5 5.59635 100.651 5.14323 100.953 4.72656C101.255 4.3099 101.682 3.98438 102.234 3.75C102.786 3.51042 103.406 3.39062 104.094 3.39062C105.135 3.39062 105.961 3.65365 106.57 4.17969C107.185 4.70052 107.492 5.4349 107.492 6.38281V10.0469C107.497 10.849 107.609 11.4557 107.828 11.8672V12H105.547ZM103.68 10.4297C104.013 10.4297 104.32 10.3568 104.602 10.2109C104.883 10.0599 105.091 9.85938 105.227 9.60938V8.15625H104.383C103.253 8.15625 102.651 8.54688 102.578 9.32812L102.57 9.46094C102.57 9.74219 102.669 9.97396 102.867 10.1562C103.065 10.3385 103.336 10.4297 103.68 10.4297ZM113.977 5.66406C113.669 5.6224 113.398 5.60156 113.164 5.60156C112.31 5.60156 111.75 5.89062 111.484 6.46875V12H109.227V3.54688H111.359L111.422 4.55469C111.875 3.77865 112.503 3.39062 113.305 3.39062C113.555 3.39062 113.789 3.42448 114.008 3.49219L113.977 5.66406ZM118.164 1.46875V3.54688H119.609V5.20312H118.164V9.42188C118.164 9.73438 118.224 9.95833 118.344 10.0938C118.464 10.2292 118.693 10.2969 119.031 10.2969C119.281 10.2969 119.503 10.2786 119.695 10.2422V11.9531C119.253 12.0885 118.797 12.1562 118.328 12.1562C116.745 12.1562 115.938 11.3568 115.906 9.75781V5.20312H114.672V3.54688H115.906V1.46875H118.164ZM122.82 7.54688V12H121.32V0.625H125.516C126.76 0.625 127.734 0.942708 128.438 1.57812C129.146 2.21354 129.5 3.05469 129.5 4.10156C129.5 5.20573 129.154 6.05729 128.461 6.65625C127.773 7.25 126.786 7.54688 125.5 7.54688H122.82ZM122.82 6.32031H125.516C126.318 6.32031 126.932 6.13281 127.359 5.75781C127.786 5.3776 128 4.83073 128 4.11719C128 3.4401 127.786 2.89844 127.359 2.49219C126.932 2.08594 126.346 1.875 125.602 1.85938H122.82V6.32031ZM135.586 7.39844H132.914V12H131.406V0.625H135.172C136.453 0.625 137.438 0.916667 138.125 1.5C138.818 2.08333 139.164 2.93229 139.164 4.04688C139.164 4.75521 138.971 5.3724 138.586 5.89844C138.206 6.42448 137.674 6.81771 136.992 7.07812L139.664 11.9062V12H138.055L135.586 7.39844ZM132.914 6.17188H135.219C135.964 6.17188 136.555 5.97917 136.992 5.59375C137.435 5.20833 137.656 4.69271 137.656 4.04688C137.656 3.34375 137.445 2.80469 137.023 2.42969C136.607 2.05469 136.003 1.86458 135.211 1.85938H132.914V6.17188ZM142.883 12H141.383V0.625H142.883V12ZM154 8.39062C153.859 9.59375 153.414 10.5234 152.664 11.1797C151.919 11.8307 150.927 12.1562 149.688 12.1562C148.344 12.1562 147.266 11.6745 146.453 10.7109C145.646 9.7474 145.242 8.45833 145.242 6.84375V5.75C145.242 4.69271 145.43 3.76302 145.805 2.96094C146.185 2.15885 146.721 1.54427 147.414 1.11719C148.107 0.684896 148.909 0.46875 149.82 0.46875C151.029 0.46875 151.997 0.807292 152.727 1.48438C153.456 2.15625 153.88 3.08854 154 4.28125H152.492C152.362 3.375 152.078 2.71875 151.641 2.3125C151.208 1.90625 150.602 1.70312 149.82 1.70312C148.862 1.70312 148.109 2.05729 147.562 2.76562C147.021 3.47396 146.75 4.48177 146.75 5.78906V6.89062C146.75 8.125 147.008 9.10677 147.523 9.83594C148.039 10.5651 148.76 10.9297 149.688 10.9297C150.521 10.9297 151.159 10.7422 151.602 10.3672C152.049 9.98698 152.346 9.32812 152.492 8.39062H154ZM162.484 6.74219H157.555V10.7734H163.281V12H156.055V0.625H163.203V1.85938H157.555V5.51562H162.484V6.74219ZM171.562 1.74219L170.469 4.82031H170.062L168.969 1.75V4.82031H168.266V0.625H169.141L170.266 3.74219L171.391 0.625H172.266V4.82031H171.562V1.74219ZM167.648 1.25781H166.5V4.82031H165.789V1.25781H164.633V0.625H167.648V1.25781Z" fill="white"/>
</g>
<defs>
<filter id="filter0_d" x="0.625" y="0" width="171.641" height="13.1562" filterUnits="userSpaceOnUse" color-interpolation-filters="sRGB">
<feFlood flood-opacity="0" result="BackgroundImageFix"/>
<feColorMatrix in="SourceAlpha" type="matrix" values="0 0 0 0 0 0 0 0 0 0 0 0 0 0 0 0 0 0 127 0"/>
<feOffset dy="1"/>
<feColorMatrix type="matrix" values="0 0 0 0 0 0 0 0 0 0 0 0 0 0 0 0 0 0 0.25 0"/>
<feBlend mode="normal" in2="BackgroundImageFix" result="effect1_dropShadow"/>
<feBlend mode="normal" in="SourceGraphic" in2="effect1_dropShadow" result="shape"/>
</filter>
</defs>
</svg>
